<?xml version="1.0" encoding="UTF-8" standalone="no"?><!DOCTYPE svg PUBLIC "-//W3C//DTD SVG 1.1//EN" "http://www.w3.org/Graphics/SVG/1.1/DTD/svg11.dtd"><svg width="100%" height="100%" viewBox="0 0 2178 400" version="1.1" xmlns="http://www.w3.org/2000/svg" xmlns:xlink="http://www.w3.org/1999/xlink" xml:space="preserve" xmlns:serif="http://www.serif.com/" style="fill-rule:evenodd;clip-rule:evenodd;stroke-linecap:round;stroke-linejoin:round;stroke-miterlimit:1.5;"><g transform="matrix(404.793307,0,0,404.793307,450.569114,316.828479)"><path d="M0.137,-0l0,-0.129l0.227,0c0.031,0 0.054,-0.007 0.071,-0.022c0.017,-0.015 0.025,-0.036 0.025,-0.062l0,-0.001c0,-0.027 -0.008,-0.048 -0.025,-0.063c-0.017,-0.015 -0.04,-0.022 -0.071,-0.022l-0.227,0l0,-0.129l0.227,0c0.028,0 0.049,-0.007 0.064,-0.021c0.015,-0.014 0.023,-0.034 0.023,-0.059c0,-0.023 -0.008,-0.041 -0.023,-0.053c-0.015,-0.013 -0.037,-0.019 -0.064,-0.019l-0.227,0l0,-0.129l0.231,0c0.069,0 0.122,0.017 0.16,0.05c0.038,0.034 0.057,0.081 0.057,0.142c0,0.041 -0.012,0.075 -0.036,0.102c-0.024,0.027 -0.059,0.044 -0.103,0.052c0.047,0.007 0.084,0.024 0.11,0.054c0.026,0.029 0.039,0.068 0.039,0.115l0,0.001c0,0.062 -0.019,0.109 -0.057,0.143c-0.038,0.034 -0.092,0.051 -0.161,0.051l-0.239,-0Zm-0.059,-0l0,-0.71l0.134,0l0,0.71l-0.134,-0Z" style="fill:#003c71;fill-rule:nonzero;"/></g><g transform="matrix(404.793307,0,0,404.793307,711.866356,316.828479)"><path d="M0.068,-0l0,-0.507l0.144,0l0,0.507l-0.144,-0Zm0.285,-0.366c-0.006,-0.006 -0.014,-0.011 -0.024,-0.015c-0.009,-0.003 -0.02,-0.005 -0.033,-0.005c-0.027,0 -0.048,0.009 -0.063,0.026c-0.015,0.017 -0.022,0.042 -0.022,0.073l-0.01,-0.132c0.014,-0.03 0.032,-0.053 0.054,-0.07c0.022,-0.017 0.047,-0.025 0.074,-0.025c0.021,0 0.04,0.003 0.057,0.01c0.017,0.007 0.032,0.017 0.045,0.03l-0.078,0.109Z" style="fill:#003c71;fill-rule:nonzero;"/></g><g transform="matrix(404.793307,0,0,404.793307,884.615062,316.828479)"><path d="M0.061,-0.576l0,-0.134l0.134,0l0,0.134l-0.134,0Zm0,0.576l0,-0.507l0.134,0l0,0.507l-0.134,-0Z" style="fill:#003c71;fill-rule:nonzero;"/></g><g transform="matrix(404.793307,0,0,404.793307,986.208695,316.828479)"><path d="M0.342,-0l0,-0.71l0.134,0l0,0.71l-0.134,-0Zm-0.118,0.007c-0.054,0 -0.096,-0.019 -0.126,-0.057c-0.03,-0.038 -0.045,-0.092 -0.045,-0.162l0,-0.081c0,-0.07 0.015,-0.125 0.045,-0.163c0.03,-0.039 0.072,-0.058 0.126,-0.058c0.027,0 0.052,0.008 0.074,0.024c0.022,0.016 0.04,0.039 0.054,0.069l-0.01,0.112c0,-0.017 -0.003,-0.032 -0.009,-0.044c-0.006,-0.012 -0.014,-0.021 -0.026,-0.028c-0.011,-0.006 -0.025,-0.009 -0.041,-0.009c-0.025,0 -0.045,0.009 -0.058,0.026c-0.014,0.017 -0.021,0.041 -0.021,0.072l0,0.081c0,0.03 0.007,0.054 0.021,0.07c0.014,0.017 0.033,0.025 0.058,0.025c0.016,0 0.03,-0.003 0.041,-0.009c0.011,-0.006 0.02,-0.015 0.026,-0.027c0.006,-0.012 0.009,-0.026 0.009,-0.042l0.007,0.116c-0.01,0.028 -0.026,0.049 -0.048,0.064c-0.022,0.015 -0.047,0.023 -0.077,0.023Z" style="fill:#003c71;fill-rule:nonzero;"/></g><g transform="matrix(404.793307,0,0,404.793307,1204.417586,316.828479)"><path d="M0.248,0.206c-0.04,0 -0.076,-0.007 -0.108,-0.021c-0.032,-0.014 -0.056,-0.034 -0.074,-0.06l0.09,-0.083c0.011,0.012 0.025,0.021 0.041,0.028c0.016,0.007 0.033,0.01 0.05,0.01c0.027,0 0.05,-0.008 0.068,-0.023c0.018,-0.015 0.027,-0.036 0.027,-0.064l0,-0.501l0.134,0l0,0.492c0,0.07 -0.02,0.125 -0.059,0.163c-0.04,0.039 -0.096,0.058 -0.168,0.058Zm-0.024,-0.199c-0.054,0 -0.096,-0.019 -0.126,-0.057c-0.03,-0.038 -0.045,-0.092 -0.045,-0.162l0,-0.081c0,-0.07 0.015,-0.125 0.045,-0.163c0.03,-0.039 0.072,-0.058 0.126,-0.058c0.027,0 0.052,0.008 0.074,0.024c0.022,0.016 0.04,0.039 0.054,0.069l-0.01,0.112c0,-0.017 -0.003,-0.032 -0.009,-0.044c-0.006,-0.012 -0.014,-0.021 -0.026,-0.028c-0.011,-0.006 -0.025,-0.009 -0.041,-0.009c-0.025,0 -0.045,0.009 -0.058,0.026c-0.014,0.017 -0.021,0.041 -0.021,0.072l0,0.081c0,0.03 0.007,0.054 0.021,0.07c0.014,0.017 0.033,0.025 0.058,0.025c0.016,0 0.03,-0.003 0.041,-0.009c0.011,-0.006 0.02,-0.015 0.026,-0.027c0.006,-0.012 0.009,-0.026 0.009,-0.042l0.007,0.116c-0.01,0.028 -0.026,0.049 -0.048,0.064c-0.022,0.015 -0.047,0.023 -0.077,0.023Z" style="fill:#003c71;fill-rule:nonzero;"/></g><g transform="matrix(404.793307,0,0,404.793307,1422.626478,316.828479)"><path d="M0.286,0.007c-0.074,0 -0.131,-0.02 -0.171,-0.059c-0.041,-0.04 -0.061,-0.095 -0.061,-0.168l0,-0.057c0,-0.076 0.019,-0.134 0.058,-0.175c0.039,-0.041 0.094,-0.062 0.165,-0.062c0.067,0 0.119,0.025 0.156,0.074c0.037,0.049 0.055,0.119 0.055,0.208l0,0.033l-0.347,0l0,-0.09l0.225,0l-0.001,-0.012c-0.004,-0.029 -0.013,-0.052 -0.027,-0.068c-0.015,-0.016 -0.035,-0.024 -0.06,-0.024c-0.032,0 -0.057,0.01 -0.075,0.029c-0.018,0.019 -0.027,0.046 -0.027,0.082l0,0.064c0,0.035 0.01,0.061 0.029,0.08c0.019,0.019 0.046,0.028 0.081,0.028c0.018,0 0.036,-0.003 0.053,-0.01c0.018,-0.006 0.034,-0.015 0.048,-0.027l0.087,0.078c-0.026,0.024 -0.056,0.043 -0.089,0.056c-0.033,0.013 -0.066,0.02 -0.1,0.02Z" style="fill:#003c71;fill-rule:nonzero;"/></g><g transform="matrix(404.793307,0,0,404.793307,1639.649452,316.828479)"><path d="M0.202,-0.71l0,0.542c0,0.012 0.004,0.021 0.011,0.028c0.007,0.007 0.017,0.01 0.03,0.01l0.022,0l0,0.129l-0.068,-0c-0.041,-0 -0.072,-0.012 -0.095,-0.035c-0.022,-0.023 -0.034,-0.056 -0.034,-0.099l0,-0.576l0.134,0Z" style="fill:#003c71;fill-rule:nonzero;"/></g><g transform="matrix(404.793307,0,0,404.793307,1756.85767,316.828479)"><path d="M0.357,-0.507l0.126,0l-0.226,0.625c-0.013,0.035 -0.03,0.059 -0.053,0.073c-0.022,0.014 -0.054,0.02 -0.093,0.02l-0.03,0l0,-0.13l0.03,0c0.014,0 0.026,-0.003 0.035,-0.009c0.01,-0.006 0.017,-0.017 0.022,-0.031l0.188,-0.548Zm-0.13,0.548l-0.212,-0.548l0.126,0l0.17,0.44l-0.084,0.108Z" style="fill:#003c71;fill-rule:nonzero;"/></g><g transform="matrix(404.793307,0,0,404.793307,1952.336469,316.828479)"><path d="M0.262,0.007c-0.046,0 -0.089,-0.006 -0.13,-0.018c-0.041,-0.012 -0.076,-0.029 -0.105,-0.051l0.083,-0.103c0.024,0.016 0.05,0.028 0.077,0.036c0.027,0.008 0.052,0.013 0.076,0.013c0.031,0 0.056,-0.003 0.073,-0.01c0.017,-0.007 0.026,-0.017 0.026,-0.029c0,-0.015 -0.006,-0.025 -0.018,-0.031c-0.012,-0.006 -0.027,-0.009 -0.047,-0.011c-0.019,-0.002 -0.04,-0.004 -0.061,-0.007c-0.022,-0.003 -0.043,-0.006 -0.065,-0.01c-0.021,-0.004 -0.041,-0.011 -0.058,-0.02c-0.018,-0.009 -0.032,-0.023 -0.042,-0.042c-0.01,-0.019 -0.016,-0.044 -0.016,-0.076c0,-0.051 0.018,-0.091 0.054,-0.119c0.036,-0.028 0.087,-0.042 0.153,-0.042c0.039,0 0.077,0.006 0.115,0.017c0.038,0.011 0.071,0.028 0.101,0.048l-0.08,0.097c-0.022,-0.012 -0.045,-0.022 -0.069,-0.029c-0.024,-0.007 -0.047,-0.01 -0.069,-0.01c-0.027,0 -0.048,0.003 -0.063,0.009c-0.015,0.006 -0.022,0.015 -0.022,0.026c0,0.01 0.005,0.017 0.016,0.022c0.01,0.005 0.024,0.008 0.041,0.01c0.017,0.002 0.035,0.004 0.055,0.007c0.022,0.003 0.045,0.006 0.068,0.01c0.023,0.004 0.044,0.01 0.063,0.02c0.019,0.01 0.034,0.025 0.046,0.044c0.012,0.02 0.018,0.047 0.018,0.082c0,0.053 -0.019,0.094 -0.057,0.124c-0.038,0.029 -0.091,0.044 -0.16,0.044Z" style="fill:#003c71;fill-rule:nonzero;"/></g><g transform="matrix(404.793307,0,0,404.793307,2162.243936,316.828479)"></g><g><path d="M341.727,125.288c-7.51,30.174 -8.624,30.395 -7.795,64.537l4.26,39.658l5.586,28.126l5.689,32.768l2.106,17.157c-1.229,17.923 -21.608,17.455 -27.487,2.029l-21.641,-104.72l-5.52,24.801l-5.86,39.245l-3.492,33.773c-2.561,25.718 -29.48,18.306 -27.487,-2.029c2.016,-20.572 13.29,-125.211 11.406,-134.196c0.234,-15.08 2.197,-33.064 -4.981,-50.739c-7.955,-19.589 -43.861,-44.05 -41.256,-46.579c6.393,-6.204 7.763,-7.343 9.745,-11.099c0.852,-1.615 11.72,5.582 21.804,14.501c7.169,6.342 23.342,20.664 36.155,24.548c14.907,4.519 31.442,2.292 40.358,-7.465c15.588,-17.06 23.565,-39.509 25.642,-62.949c13.55,-5.774 19.249,0.024 18.576,14.815l-35.807,83.817Z" style="fill:#02aca7;stroke:#02aca7;stroke-width:1px;"/><path d="M87.198,125.268c8.15,30.201 9.36,30.423 8.46,64.596l-4.623,39.694l-6.063,28.152l-6.175,32.798l-2.285,17.172c1.334,17.939 23.452,17.471 29.833,2.031l23.488,-104.816l5.991,24.824l6.36,39.281l3.79,33.804c2.779,25.741 31.996,18.323 29.833,-2.031c-2.188,-20.591 -14.424,-125.325 -12.38,-134.318c-0.254,-15.094 -2.384,-33.094 5.406,-50.785c8.634,-19.607 37.888,-29.106 66.194,-62.513c7.064,-8.337 -2.644,-20.606 -12.69,-13c-10.44,7.904 -14.747,14.777 -41.295,35.861c-7.87,6.251 -27.569,15.731 -40.914,21.008c-16.18,6.397 -45.836,-5.384 -54.956,-27.825l-16.675,-42.653c-14.706,-5.779 -20.891,0.024 -20.162,14.829l38.863,83.893Z" style="fill:#003c71;stroke:#000471;stroke-width:1px;"/><ellipse cx="305.834" cy="62.316" rx="29.22" ry="28.498" style="fill:#02aca7;"/><ellipse cx="124.487" cy="62.316" rx="29.22" ry="28.498" style="fill:#003c71;"/></g></svg>